/* XPM */
static char*kfe[]={
"32 32 5 1",
"# c #000000",
". c None",
"b c #585858",
"a c #a0a0a4",
"c c #dcdcdc",
"...##########################...",
"..#aaaaaaaaaaaaaaaaaaaaaaaaaa#..",
"..#abaaaaaaaaaaaaaaaaaaaaaabb#..",
"..#ab..........aaaaaaaaaaaabb#..",
"..#bbbbbbbbbbbbbbbbbbbbbbbbbb#..",
"..#bccccccccccccccccccccccccb#..",
"..#bccbbbbbbccccccccccccccccb#..",
"..#bccccc.....c....c.c....ccb#..",
"..#bccccc.....c...cc.cc..cccb#..",
"..#bcccccaaa.aaac..aa.aa.cccb#..",
"..#bccccccccccccccccccccccccb#..",
"..#bccbbbbbbbbbcccccccccccccb#..",
"..#bcccccaaa..aca..c.ca.acccb#..",
"..#bcccccc..cccc...cccc.ccccb#..",
"..#bcccccaaaac.caaa.caa.ccccb#..",
"..#bccccccccccccccccccccccccb#..",
"..#bccbbbbbbbbccccccccccccccb#..",
"..#bccccca.caa..caa...a..cccb#..",
"..#bccccc..cccc.c.ccccccccccb#..",
"..#bccccc.a.ccc.a.cccaccccccb#..",
"..#bcccccaaa.aaac.caa.aa.cccb#..",
"..#bccccccccccccccccccccccccb#..",
"..#bccbbbbbbbbbbccccccccccccb#..",
"..#bccccc.a.ccc...ccc.cc.cccb#..",
"..#bccccc...ccc...ccc.cc.cccb#..",
"..#bccccccccccccccccccccccccb#..",
"..#bccbbbbbbccccccccccccccccb#..",
"..#bcccc.................cccb#..",
"..#bccccccccccccccccccccccccb#..",
"..#bccccccccccccccccccccccc.b#..",
"..#bbbbbbbbbbbbbbbbbbbbbbbbb##..",
"...##########################..."};
